<mxfile host="app.diagrams.net" modified="2024-04-09T18:16:38.490Z" agent="Mozilla/5.0 (Windows NT 10.0; Win64; x64) AppleWebKit/537.36 (KHTML, like Gecko) Chrome/123.0.0.0 Safari/537.36" etag="kl5IRjqDHbZd1boeDoZm" version="24.2.3" type="device">
  <diagram name="Page-1" id="qwwusv9k6gBADSjnSwr-">
    <mxGraphModel dx="1479" dy="1485" grid="1" gridSize="10" guides="1" tooltips="1" connect="1" arrows="1" fold="1" page="1" pageScale="1" pageWidth="827" pageHeight="1169" math="0" shadow="0">
      <root>
        <mxCell id="0" />
        <mxCell id="1" parent="0" />
        <mxCell id="3AkXD_OntBg2VQFo1rzs-1" value="PersonID" style="ellipse;whiteSpace=wrap;html=1;align=center;fontStyle=4;" vertex="1" parent="1">
          <mxGeometry x="350" y="-70" width="100" height="40" as="geometry" />
        </mxCell>
        <mxCell id="3AkXD_OntBg2VQFo1rzs-2" value="Person" style="rounded=1;arcSize=10;whiteSpace=wrap;html=1;align=center;" vertex="1" parent="1">
          <mxGeometry x="350" y="60" width="100" height="40" as="geometry" />
        </mxCell>
        <mxCell id="3AkXD_OntBg2VQFo1rzs-3" value="Employee" style="rounded=1;arcSize=10;whiteSpace=wrap;html=1;align=center;" vertex="1" parent="1">
          <mxGeometry x="340" y="270" width="120" height="40" as="geometry" />
        </mxCell>
        <mxCell id="3AkXD_OntBg2VQFo1rzs-4" value="Equipment" style="rounded=1;arcSize=10;whiteSpace=wrap;html=1;align=center;" vertex="1" parent="1">
          <mxGeometry x="630" y="450" width="100" height="40" as="geometry" />
        </mxCell>
        <mxCell id="3AkXD_OntBg2VQFo1rzs-5" value="Inventory" style="rounded=1;arcSize=10;whiteSpace=wrap;html=1;align=center;" vertex="1" parent="1">
          <mxGeometry x="120" y="450" width="100" height="40" as="geometry" />
        </mxCell>
        <mxCell id="3AkXD_OntBg2VQFo1rzs-7" value="Tool" style="rounded=1;arcSize=10;whiteSpace=wrap;html=1;align=center;" vertex="1" parent="1">
          <mxGeometry x="800" y="710" width="100" height="40" as="geometry" />
        </mxCell>
        <mxCell id="3AkXD_OntBg2VQFo1rzs-8" value="CheckInOut" style="rounded=1;arcSize=10;whiteSpace=wrap;html=1;align=center;" vertex="1" parent="1">
          <mxGeometry x="410" y="950" width="100" height="40" as="geometry" />
        </mxCell>
        <mxCell id="3AkXD_OntBg2VQFo1rzs-9" value="" style="endArrow=none;html=1;rounded=0;entryX=0.5;entryY=1;entryDx=0;entryDy=0;exitX=0.5;exitY=0;exitDx=0;exitDy=0;" edge="1" parent="1" source="3AkXD_OntBg2VQFo1rzs-2" target="3AkXD_OntBg2VQFo1rzs-1">
          <mxGeometry width="50" height="50" relative="1" as="geometry">
            <mxPoint x="260" y="110" as="sourcePoint" />
            <mxPoint x="310" y="60" as="targetPoint" />
          </mxGeometry>
        </mxCell>
        <mxCell id="3AkXD_OntBg2VQFo1rzs-17" value="AddressCity" style="ellipse;whiteSpace=wrap;html=1;align=center;" vertex="1" parent="1">
          <mxGeometry x="40" y="60" width="90" height="30" as="geometry" />
        </mxCell>
        <mxCell id="3AkXD_OntBg2VQFo1rzs-20" value="" style="endArrow=none;html=1;rounded=0;exitX=1;exitY=0.5;exitDx=0;exitDy=0;entryX=-0.003;entryY=0.661;entryDx=0;entryDy=0;entryPerimeter=0;" edge="1" parent="1" source="3AkXD_OntBg2VQFo1rzs-17" target="3AkXD_OntBg2VQFo1rzs-187">
          <mxGeometry relative="1" as="geometry">
            <mxPoint x="450" y="160" as="sourcePoint" />
            <mxPoint x="610" y="160" as="targetPoint" />
          </mxGeometry>
        </mxCell>
        <mxCell id="3AkXD_OntBg2VQFo1rzs-21" value="AddressStreet" style="ellipse;whiteSpace=wrap;html=1;align=center;" vertex="1" parent="1">
          <mxGeometry x="160" y="-80" width="100" height="40" as="geometry" />
        </mxCell>
        <mxCell id="3AkXD_OntBg2VQFo1rzs-22" value="" style="endArrow=none;html=1;rounded=0;exitX=0.5;exitY=1;exitDx=0;exitDy=0;" edge="1" parent="1" source="3AkXD_OntBg2VQFo1rzs-21" target="3AkXD_OntBg2VQFo1rzs-187">
          <mxGeometry relative="1" as="geometry">
            <mxPoint x="430" y="230" as="sourcePoint" />
            <mxPoint x="330" y="160" as="targetPoint" />
          </mxGeometry>
        </mxCell>
        <mxCell id="3AkXD_OntBg2VQFo1rzs-23" value="AddressPostalCode" style="ellipse;whiteSpace=wrap;html=1;align=center;" vertex="1" parent="1">
          <mxGeometry x="35" y="100" width="120" height="40" as="geometry" />
        </mxCell>
        <mxCell id="3AkXD_OntBg2VQFo1rzs-24" value="" style="endArrow=none;html=1;rounded=0;exitX=1;exitY=0.5;exitDx=0;exitDy=0;entryX=0.241;entryY=0.946;entryDx=0;entryDy=0;entryPerimeter=0;" edge="1" parent="1" source="3AkXD_OntBg2VQFo1rzs-23" target="3AkXD_OntBg2VQFo1rzs-187">
          <mxGeometry relative="1" as="geometry">
            <mxPoint x="440" y="120" as="sourcePoint" />
            <mxPoint x="370" y="170" as="targetPoint" />
          </mxGeometry>
        </mxCell>
        <mxCell id="3AkXD_OntBg2VQFo1rzs-25" value="AddressCountry" style="ellipse;whiteSpace=wrap;html=1;align=center;" vertex="1" parent="1">
          <mxGeometry x="100" y="-20" width="100" height="40" as="geometry" />
        </mxCell>
        <mxCell id="3AkXD_OntBg2VQFo1rzs-26" value="" style="endArrow=none;html=1;rounded=0;exitX=1;exitY=1;exitDx=0;exitDy=0;entryX=0;entryY=0;entryDx=0;entryDy=0;" edge="1" parent="1" source="3AkXD_OntBg2VQFo1rzs-25" target="3AkXD_OntBg2VQFo1rzs-187">
          <mxGeometry relative="1" as="geometry">
            <mxPoint x="460" y="70" as="sourcePoint" />
            <mxPoint x="360" as="targetPoint" />
          </mxGeometry>
        </mxCell>
        <mxCell id="3AkXD_OntBg2VQFo1rzs-27" value="AddressState" style="ellipse;whiteSpace=wrap;html=1;align=center;" vertex="1" parent="1">
          <mxGeometry x="40" y="20" width="80" height="30" as="geometry" />
        </mxCell>
        <mxCell id="3AkXD_OntBg2VQFo1rzs-31" value="" style="endArrow=none;html=1;rounded=0;exitX=1;exitY=0.5;exitDx=0;exitDy=0;entryX=0.019;entryY=0.327;entryDx=0;entryDy=0;entryPerimeter=0;" edge="1" parent="1" source="3AkXD_OntBg2VQFo1rzs-27" target="3AkXD_OntBg2VQFo1rzs-187">
          <mxGeometry relative="1" as="geometry">
            <mxPoint x="260" y="120" as="sourcePoint" />
            <mxPoint x="340" y="80" as="targetPoint" />
          </mxGeometry>
        </mxCell>
        <mxCell id="3AkXD_OntBg2VQFo1rzs-32" value="Fname" style="ellipse;whiteSpace=wrap;html=1;align=center;" vertex="1" parent="1">
          <mxGeometry x="457" y="-30" width="73" height="29" as="geometry" />
        </mxCell>
        <mxCell id="3AkXD_OntBg2VQFo1rzs-33" value="" style="endArrow=none;html=1;rounded=0;exitX=0;exitY=1;exitDx=0;exitDy=0;entryX=0.901;entryY=-0.046;entryDx=0;entryDy=0;entryPerimeter=0;" edge="1" parent="1" source="3AkXD_OntBg2VQFo1rzs-32" target="3AkXD_OntBg2VQFo1rzs-2">
          <mxGeometry relative="1" as="geometry">
            <mxPoint x="757" y="59" as="sourcePoint" />
            <mxPoint x="660" y="50" as="targetPoint" />
          </mxGeometry>
        </mxCell>
        <mxCell id="3AkXD_OntBg2VQFo1rzs-34" value="Lname" style="ellipse;whiteSpace=wrap;html=1;align=center;" vertex="1" parent="1">
          <mxGeometry x="540" y="-10" width="80" height="30" as="geometry" />
        </mxCell>
        <mxCell id="3AkXD_OntBg2VQFo1rzs-35" value="" style="endArrow=none;html=1;rounded=0;exitX=0;exitY=1;exitDx=0;exitDy=0;entryX=0.901;entryY=-0.046;entryDx=0;entryDy=0;entryPerimeter=0;" edge="1" parent="1" source="3AkXD_OntBg2VQFo1rzs-34">
          <mxGeometry relative="1" as="geometry">
            <mxPoint x="482" y="3" as="sourcePoint" />
            <mxPoint x="450" y="68" as="targetPoint" />
          </mxGeometry>
        </mxCell>
        <mxCell id="3AkXD_OntBg2VQFo1rzs-36" value="Ge&lt;span style=&quot;background-color: initial;&quot;&gt;nder&lt;/span&gt;" style="ellipse;whiteSpace=wrap;html=1;align=center;" vertex="1" parent="1">
          <mxGeometry x="570" y="40" width="80" height="30" as="geometry" />
        </mxCell>
        <mxCell id="3AkXD_OntBg2VQFo1rzs-37" value="Phone_no" style="ellipse;whiteSpace=wrap;html=1;align=center;" vertex="1" parent="1">
          <mxGeometry x="580" y="90" width="80" height="30" as="geometry" />
        </mxCell>
        <mxCell id="3AkXD_OntBg2VQFo1rzs-38" value="SSN" style="ellipse;whiteSpace=wrap;html=1;align=center;" vertex="1" parent="1">
          <mxGeometry x="300" y="-20" width="70" height="20" as="geometry" />
        </mxCell>
        <mxCell id="3AkXD_OntBg2VQFo1rzs-39" value="Email" style="ellipse;whiteSpace=wrap;html=1;align=center;" vertex="1" parent="1">
          <mxGeometry x="500" y="110" width="70" height="20" as="geometry" />
        </mxCell>
        <mxCell id="3AkXD_OntBg2VQFo1rzs-40" value="" style="endArrow=none;html=1;rounded=0;entryX=0.714;entryY=1;entryDx=0;entryDy=0;exitX=0.25;exitY=0;exitDx=0;exitDy=0;entryPerimeter=0;" edge="1" parent="1" source="3AkXD_OntBg2VQFo1rzs-2" target="3AkXD_OntBg2VQFo1rzs-38">
          <mxGeometry width="50" height="50" relative="1" as="geometry">
            <mxPoint x="410" y="70" as="sourcePoint" />
            <mxPoint x="410" y="-20" as="targetPoint" />
          </mxGeometry>
        </mxCell>
        <mxCell id="3AkXD_OntBg2VQFo1rzs-41" value="" style="endArrow=none;html=1;rounded=0;entryX=0;entryY=0.5;entryDx=0;entryDy=0;exitX=1;exitY=0.5;exitDx=0;exitDy=0;" edge="1" parent="1" source="3AkXD_OntBg2VQFo1rzs-2" target="3AkXD_OntBg2VQFo1rzs-36">
          <mxGeometry width="50" height="50" relative="1" as="geometry">
            <mxPoint x="450" y="80" as="sourcePoint" />
            <mxPoint x="420" y="-10" as="targetPoint" />
          </mxGeometry>
        </mxCell>
        <mxCell id="3AkXD_OntBg2VQFo1rzs-42" value="" style="endArrow=none;html=1;rounded=0;entryX=0;entryY=0;entryDx=0;entryDy=0;exitX=1;exitY=0.75;exitDx=0;exitDy=0;" edge="1" parent="1" source="3AkXD_OntBg2VQFo1rzs-2" target="3AkXD_OntBg2VQFo1rzs-37">
          <mxGeometry width="50" height="50" relative="1" as="geometry">
            <mxPoint x="430" y="90" as="sourcePoint" />
            <mxPoint x="430" as="targetPoint" />
          </mxGeometry>
        </mxCell>
        <mxCell id="3AkXD_OntBg2VQFo1rzs-44" value="" style="endArrow=none;html=1;rounded=0;entryX=0;entryY=0.5;entryDx=0;entryDy=0;exitX=1;exitY=1;exitDx=0;exitDy=0;" edge="1" parent="1" source="3AkXD_OntBg2VQFo1rzs-2" target="3AkXD_OntBg2VQFo1rzs-39">
          <mxGeometry width="50" height="50" relative="1" as="geometry">
            <mxPoint x="440" y="100" as="sourcePoint" />
            <mxPoint x="440" y="10" as="targetPoint" />
          </mxGeometry>
        </mxCell>
        <mxCell id="3AkXD_OntBg2VQFo1rzs-48" value="PersonID" style="ellipse;whiteSpace=wrap;html=1;align=center;" vertex="1" parent="1">
          <mxGeometry x="510" y="250" width="70" height="20" as="geometry" />
        </mxCell>
        <mxCell id="3AkXD_OntBg2VQFo1rzs-49" value="" style="endArrow=none;html=1;rounded=0;entryX=0;entryY=0.5;entryDx=0;entryDy=0;exitX=1;exitY=0;exitDx=0;exitDy=0;" edge="1" parent="1" target="3AkXD_OntBg2VQFo1rzs-48" source="3AkXD_OntBg2VQFo1rzs-3">
          <mxGeometry width="50" height="50" relative="1" as="geometry">
            <mxPoint x="460" y="300" as="sourcePoint" />
            <mxPoint x="450" y="210" as="targetPoint" />
          </mxGeometry>
        </mxCell>
        <mxCell id="3AkXD_OntBg2VQFo1rzs-50" value="EmpID" style="ellipse;whiteSpace=wrap;html=1;align=center;fontStyle=4;" vertex="1" parent="1">
          <mxGeometry x="230" y="210" width="90" height="30" as="geometry" />
        </mxCell>
        <mxCell id="3AkXD_OntBg2VQFo1rzs-51" value="" style="endArrow=none;html=1;rounded=0;entryX=1;entryY=1;entryDx=0;entryDy=0;" edge="1" parent="1" target="3AkXD_OntBg2VQFo1rzs-50">
          <mxGeometry width="50" height="50" relative="1" as="geometry">
            <mxPoint x="340" y="270" as="sourcePoint" />
            <mxPoint x="520" y="270" as="targetPoint" />
          </mxGeometry>
        </mxCell>
        <mxCell id="3AkXD_OntBg2VQFo1rzs-52" value="JoiningDate" style="ellipse;whiteSpace=wrap;html=1;align=center;" vertex="1" parent="1">
          <mxGeometry x="155" y="250" width="90" height="30" as="geometry" />
        </mxCell>
        <mxCell id="3AkXD_OntBg2VQFo1rzs-53" value="" style="endArrow=none;html=1;rounded=0;entryX=1;entryY=0.5;entryDx=0;entryDy=0;exitX=0;exitY=0.5;exitDx=0;exitDy=0;" edge="1" parent="1" target="3AkXD_OntBg2VQFo1rzs-52" source="3AkXD_OntBg2VQFo1rzs-3">
          <mxGeometry width="50" height="50" relative="1" as="geometry">
            <mxPoint x="480" y="300" as="sourcePoint" />
            <mxPoint x="470" y="240" as="targetPoint" />
          </mxGeometry>
        </mxCell>
        <mxCell id="3AkXD_OntBg2VQFo1rzs-54" value="Designation" style="ellipse;whiteSpace=wrap;html=1;align=center;" vertex="1" parent="1">
          <mxGeometry x="200" y="290" width="90" height="30" as="geometry" />
        </mxCell>
        <mxCell id="3AkXD_OntBg2VQFo1rzs-55" value="" style="endArrow=none;html=1;rounded=0;entryX=1;entryY=0.5;entryDx=0;entryDy=0;exitX=0;exitY=0.75;exitDx=0;exitDy=0;" edge="1" parent="1" target="3AkXD_OntBg2VQFo1rzs-54" source="3AkXD_OntBg2VQFo1rzs-3">
          <mxGeometry width="50" height="50" relative="1" as="geometry">
            <mxPoint x="365" y="330" as="sourcePoint" />
            <mxPoint x="475" y="280" as="targetPoint" />
          </mxGeometry>
        </mxCell>
        <mxCell id="3AkXD_OntBg2VQFo1rzs-56" value="Department" style="ellipse;whiteSpace=wrap;html=1;align=center;" vertex="1" parent="1">
          <mxGeometry x="510" y="300" width="90" height="30" as="geometry" />
        </mxCell>
        <mxCell id="3AkXD_OntBg2VQFo1rzs-57" value="" style="endArrow=none;html=1;rounded=0;entryX=0;entryY=0.5;entryDx=0;entryDy=0;exitX=1;exitY=0.75;exitDx=0;exitDy=0;" edge="1" parent="1" target="3AkXD_OntBg2VQFo1rzs-56" source="3AkXD_OntBg2VQFo1rzs-3">
          <mxGeometry width="50" height="50" relative="1" as="geometry">
            <mxPoint x="680" y="310" as="sourcePoint" />
            <mxPoint x="795" y="290" as="targetPoint" />
          </mxGeometry>
        </mxCell>
        <mxCell id="3AkXD_OntBg2VQFo1rzs-58" value="SubDepartment" style="ellipse;whiteSpace=wrap;html=1;align=center;" vertex="1" parent="1">
          <mxGeometry x="580" y="270" width="110" height="30" as="geometry" />
        </mxCell>
        <mxCell id="3AkXD_OntBg2VQFo1rzs-59" value="" style="endArrow=none;html=1;rounded=0;entryX=0;entryY=0.5;entryDx=0;entryDy=0;exitX=1;exitY=0.5;exitDx=0;exitDy=0;" edge="1" parent="1" target="3AkXD_OntBg2VQFo1rzs-58" source="3AkXD_OntBg2VQFo1rzs-3">
          <mxGeometry width="50" height="50" relative="1" as="geometry">
            <mxPoint x="530" y="270" as="sourcePoint" />
            <mxPoint x="865" y="260" as="targetPoint" />
          </mxGeometry>
        </mxCell>
        <mxCell id="3AkXD_OntBg2VQFo1rzs-60" value="Quantity" style="ellipse;whiteSpace=wrap;html=1;align=center;" vertex="1" parent="1">
          <mxGeometry x="770" y="420" width="70" height="20" as="geometry" />
        </mxCell>
        <mxCell id="3AkXD_OntBg2VQFo1rzs-61" value="" style="endArrow=none;html=1;rounded=0;entryX=0;entryY=0.5;entryDx=0;entryDy=0;exitX=1;exitY=0;exitDx=0;exitDy=0;" edge="1" parent="1" target="3AkXD_OntBg2VQFo1rzs-60">
          <mxGeometry width="50" height="50" relative="1" as="geometry">
            <mxPoint x="730" y="450" as="sourcePoint" />
            <mxPoint x="720" y="390" as="targetPoint" />
          </mxGeometry>
        </mxCell>
        <mxCell id="3AkXD_OntBg2VQFo1rzs-62" value="Name" style="ellipse;whiteSpace=wrap;html=1;align=center;" vertex="1" parent="1">
          <mxGeometry x="790" y="470" width="70" height="30" as="geometry" />
        </mxCell>
        <mxCell id="3AkXD_OntBg2VQFo1rzs-63" value="" style="endArrow=none;html=1;rounded=0;entryX=0;entryY=0.5;entryDx=0;entryDy=0;exitX=1;exitY=0.75;exitDx=0;exitDy=0;" edge="1" parent="1" target="3AkXD_OntBg2VQFo1rzs-62">
          <mxGeometry width="50" height="50" relative="1" as="geometry">
            <mxPoint x="730" y="480" as="sourcePoint" />
            <mxPoint x="1065" y="470" as="targetPoint" />
          </mxGeometry>
        </mxCell>
        <mxCell id="3AkXD_OntBg2VQFo1rzs-64" value="Description" style="ellipse;whiteSpace=wrap;html=1;align=center;" vertex="1" parent="1">
          <mxGeometry x="850" y="430" width="110" height="30" as="geometry" />
        </mxCell>
        <mxCell id="3AkXD_OntBg2VQFo1rzs-65" value="" style="endArrow=none;html=1;rounded=0;entryX=0;entryY=0.5;entryDx=0;entryDy=0;exitX=1;exitY=0.5;exitDx=0;exitDy=0;" edge="1" parent="1" target="3AkXD_OntBg2VQFo1rzs-64">
          <mxGeometry width="50" height="50" relative="1" as="geometry">
            <mxPoint x="730" y="470" as="sourcePoint" />
            <mxPoint x="1135" y="440" as="targetPoint" />
          </mxGeometry>
        </mxCell>
        <mxCell id="3AkXD_OntBg2VQFo1rzs-66" value="EquipmentID" style="ellipse;whiteSpace=wrap;html=1;align=center;fontStyle=4;" vertex="1" parent="1">
          <mxGeometry x="770" y="370" width="90" height="30" as="geometry" />
        </mxCell>
        <mxCell id="3AkXD_OntBg2VQFo1rzs-67" value="" style="endArrow=none;html=1;rounded=0;entryX=0;entryY=1;entryDx=0;entryDy=0;exitX=0.75;exitY=0;exitDx=0;exitDy=0;" edge="1" parent="1" source="3AkXD_OntBg2VQFo1rzs-4" target="3AkXD_OntBg2VQFo1rzs-66">
          <mxGeometry width="50" height="50" relative="1" as="geometry">
            <mxPoint x="740" y="460" as="sourcePoint" />
            <mxPoint x="790" y="450" as="targetPoint" />
          </mxGeometry>
        </mxCell>
        <mxCell id="3AkXD_OntBg2VQFo1rzs-69" value="Type" style="ellipse;whiteSpace=wrap;html=1;align=center;" vertex="1" parent="1">
          <mxGeometry x="770" y="510" width="70" height="30" as="geometry" />
        </mxCell>
        <mxCell id="3AkXD_OntBg2VQFo1rzs-70" value="" style="endArrow=none;html=1;rounded=0;entryX=0;entryY=0.5;entryDx=0;entryDy=0;exitX=0.75;exitY=1;exitDx=0;exitDy=0;" edge="1" parent="1" target="3AkXD_OntBg2VQFo1rzs-69" source="3AkXD_OntBg2VQFo1rzs-4">
          <mxGeometry width="50" height="50" relative="1" as="geometry">
            <mxPoint x="710" y="520" as="sourcePoint" />
            <mxPoint x="1045" y="510" as="targetPoint" />
          </mxGeometry>
        </mxCell>
        <mxCell id="3AkXD_OntBg2VQFo1rzs-73" value="InvID" style="ellipse;whiteSpace=wrap;html=1;align=center;fontStyle=4;" vertex="1" parent="1">
          <mxGeometry x="-5" y="410" width="90" height="30" as="geometry" />
        </mxCell>
        <mxCell id="3AkXD_OntBg2VQFo1rzs-74" value="" style="endArrow=none;html=1;rounded=0;entryX=1;entryY=0.5;entryDx=0;entryDy=0;exitX=0;exitY=0;exitDx=0;exitDy=0;" edge="1" parent="1" target="3AkXD_OntBg2VQFo1rzs-73">
          <mxGeometry width="50" height="50" relative="1" as="geometry">
            <mxPoint x="120" y="450" as="sourcePoint" />
            <mxPoint x="280" y="450" as="targetPoint" />
          </mxGeometry>
        </mxCell>
        <mxCell id="3AkXD_OntBg2VQFo1rzs-75" value="LastUpdatdDate" style="ellipse;whiteSpace=wrap;html=1;align=center;" vertex="1" parent="1">
          <mxGeometry x="-120" y="430" width="110" height="30" as="geometry" />
        </mxCell>
        <mxCell id="3AkXD_OntBg2VQFo1rzs-76" value="" style="endArrow=none;html=1;rounded=0;entryX=1;entryY=0.5;entryDx=0;entryDy=0;exitX=0;exitY=0.5;exitDx=0;exitDy=0;" edge="1" parent="1" target="3AkXD_OntBg2VQFo1rzs-75">
          <mxGeometry width="50" height="50" relative="1" as="geometry">
            <mxPoint x="120" y="470" as="sourcePoint" />
            <mxPoint x="230" y="420" as="targetPoint" />
          </mxGeometry>
        </mxCell>
        <mxCell id="3AkXD_OntBg2VQFo1rzs-77" value="ManagerID" style="ellipse;whiteSpace=wrap;html=1;align=center;" vertex="1" parent="1">
          <mxGeometry x="-50" y="470" width="90" height="30" as="geometry" />
        </mxCell>
        <mxCell id="3AkXD_OntBg2VQFo1rzs-78" value="" style="endArrow=none;html=1;rounded=0;entryX=1;entryY=0.5;entryDx=0;entryDy=0;exitX=0;exitY=0.75;exitDx=0;exitDy=0;" edge="1" parent="1" target="3AkXD_OntBg2VQFo1rzs-77">
          <mxGeometry width="50" height="50" relative="1" as="geometry">
            <mxPoint x="120" y="480" as="sourcePoint" />
            <mxPoint x="235" y="460" as="targetPoint" />
          </mxGeometry>
        </mxCell>
        <mxCell id="3AkXD_OntBg2VQFo1rzs-79" value="Name" style="ellipse;whiteSpace=wrap;html=1;align=center;" vertex="1" parent="1">
          <mxGeometry x="60" y="380" width="90" height="30" as="geometry" />
        </mxCell>
        <mxCell id="3AkXD_OntBg2VQFo1rzs-80" value="" style="endArrow=none;html=1;rounded=0;entryX=1;entryY=1;entryDx=0;entryDy=0;exitX=0.5;exitY=0;exitDx=0;exitDy=0;" edge="1" parent="1" target="3AkXD_OntBg2VQFo1rzs-79" source="3AkXD_OntBg2VQFo1rzs-5">
          <mxGeometry width="50" height="50" relative="1" as="geometry">
            <mxPoint x="280" y="420" as="sourcePoint" />
            <mxPoint x="390" y="370" as="targetPoint" />
          </mxGeometry>
        </mxCell>
        <mxCell id="3AkXD_OntBg2VQFo1rzs-81" value="Location" style="ellipse;whiteSpace=wrap;html=1;align=center;" vertex="1" parent="1">
          <mxGeometry x="-20" y="510" width="90" height="30" as="geometry" />
        </mxCell>
        <mxCell id="3AkXD_OntBg2VQFo1rzs-82" value="" style="endArrow=none;html=1;rounded=0;entryX=1;entryY=0;entryDx=0;entryDy=0;exitX=0;exitY=1;exitDx=0;exitDy=0;" edge="1" parent="1" source="3AkXD_OntBg2VQFo1rzs-5" target="3AkXD_OntBg2VQFo1rzs-81">
          <mxGeometry width="50" height="50" relative="1" as="geometry">
            <mxPoint x="130" y="490" as="sourcePoint" />
            <mxPoint x="50" y="495" as="targetPoint" />
          </mxGeometry>
        </mxCell>
        <mxCell id="3AkXD_OntBg2VQFo1rzs-83" value="Type" style="ellipse;whiteSpace=wrap;html=1;align=center;" vertex="1" parent="1">
          <mxGeometry x="70" y="530" width="90" height="30" as="geometry" />
        </mxCell>
        <mxCell id="3AkXD_OntBg2VQFo1rzs-84" value="" style="endArrow=none;html=1;rounded=0;entryX=0.5;entryY=0;entryDx=0;entryDy=0;exitX=0.2;exitY=1;exitDx=0;exitDy=0;exitPerimeter=0;" edge="1" parent="1" source="3AkXD_OntBg2VQFo1rzs-5" target="3AkXD_OntBg2VQFo1rzs-83">
          <mxGeometry width="50" height="50" relative="1" as="geometry">
            <mxPoint x="130" y="500" as="sourcePoint" />
            <mxPoint x="80" y="535" as="targetPoint" />
          </mxGeometry>
        </mxCell>
        <mxCell id="3AkXD_OntBg2VQFo1rzs-85" value="DLID" style="ellipse;whiteSpace=wrap;html=1;align=center;fontStyle=4;" vertex="1" parent="1">
          <mxGeometry x="85" y="660" width="90" height="30" as="geometry" />
        </mxCell>
        <mxCell id="3AkXD_OntBg2VQFo1rzs-86" value="" style="endArrow=none;html=1;rounded=0;entryX=0;entryY=0;entryDx=0;entryDy=0;exitX=1;exitY=1;exitDx=0;exitDy=0;" edge="1" parent="1" source="3AkXD_OntBg2VQFo1rzs-85">
          <mxGeometry width="50" height="50" relative="1" as="geometry">
            <mxPoint x="190" y="500" as="sourcePoint" />
            <mxPoint x="190" y="710" as="targetPoint" />
          </mxGeometry>
        </mxCell>
        <mxCell id="3AkXD_OntBg2VQFo1rzs-87" value="Quantity" style="ellipse;whiteSpace=wrap;html=1;align=center;" vertex="1" parent="1">
          <mxGeometry x="30" y="690" width="70" height="20" as="geometry" />
        </mxCell>
        <mxCell id="3AkXD_OntBg2VQFo1rzs-88" value="" style="endArrow=none;html=1;rounded=0;entryX=1;entryY=0.5;entryDx=0;entryDy=0;exitX=0;exitY=0.25;exitDx=0;exitDy=0;" edge="1" parent="1" target="3AkXD_OntBg2VQFo1rzs-87">
          <mxGeometry width="50" height="50" relative="1" as="geometry">
            <mxPoint x="190" y="720" as="sourcePoint" />
            <mxPoint x="100" y="675" as="targetPoint" />
          </mxGeometry>
        </mxCell>
        <mxCell id="3AkXD_OntBg2VQFo1rzs-89" value="DamageType" style="ellipse;whiteSpace=wrap;html=1;align=center;" vertex="1" parent="1">
          <mxGeometry x="-5" y="715" width="90" height="30" as="geometry" />
        </mxCell>
        <mxCell id="3AkXD_OntBg2VQFo1rzs-90" value="" style="endArrow=none;html=1;rounded=0;entryX=1;entryY=0.5;entryDx=0;entryDy=0;exitX=0;exitY=0.5;exitDx=0;exitDy=0;" edge="1" parent="1" target="3AkXD_OntBg2VQFo1rzs-89">
          <mxGeometry width="50" height="50" relative="1" as="geometry">
            <mxPoint x="190" y="730" as="sourcePoint" />
            <mxPoint x="90" y="715" as="targetPoint" />
          </mxGeometry>
        </mxCell>
        <mxCell id="3AkXD_OntBg2VQFo1rzs-91" value="Description" style="ellipse;whiteSpace=wrap;html=1;align=center;" vertex="1" parent="1">
          <mxGeometry x="10" y="750" width="90" height="30" as="geometry" />
        </mxCell>
        <mxCell id="3AkXD_OntBg2VQFo1rzs-92" value="" style="endArrow=none;html=1;rounded=0;entryX=1;entryY=0.5;entryDx=0;entryDy=0;exitX=0;exitY=0.75;exitDx=0;exitDy=0;" edge="1" parent="1" target="3AkXD_OntBg2VQFo1rzs-91">
          <mxGeometry width="50" height="50" relative="1" as="geometry">
            <mxPoint x="190" y="740" as="sourcePoint" />
            <mxPoint x="100" y="725" as="targetPoint" />
          </mxGeometry>
        </mxCell>
        <mxCell id="3AkXD_OntBg2VQFo1rzs-93" value="DateTime" style="ellipse;whiteSpace=wrap;html=1;align=center;" vertex="1" parent="1">
          <mxGeometry x="20" y="790" width="90" height="30" as="geometry" />
        </mxCell>
        <mxCell id="3AkXD_OntBg2VQFo1rzs-94" value="" style="endArrow=none;html=1;rounded=0;entryX=1;entryY=0;entryDx=0;entryDy=0;exitX=0;exitY=1;exitDx=0;exitDy=0;" edge="1" parent="1" target="3AkXD_OntBg2VQFo1rzs-93" source="3AkXD_OntBg2VQFo1rzs-158">
          <mxGeometry width="50" height="50" relative="1" as="geometry">
            <mxPoint x="190" y="750" as="sourcePoint" />
            <mxPoint x="125" y="800" as="targetPoint" />
          </mxGeometry>
        </mxCell>
        <mxCell id="3AkXD_OntBg2VQFo1rzs-95" value="Expense" style="ellipse;whiteSpace=wrap;html=1;align=center;" vertex="1" parent="1">
          <mxGeometry x="110" y="810" width="70" height="20" as="geometry" />
        </mxCell>
        <mxCell id="3AkXD_OntBg2VQFo1rzs-96" value="" style="endArrow=none;html=1;rounded=0;entryX=0.625;entryY=-0.053;entryDx=0;entryDy=0;exitX=0.25;exitY=1;exitDx=0;exitDy=0;entryPerimeter=0;" edge="1" parent="1" target="3AkXD_OntBg2VQFo1rzs-95" source="3AkXD_OntBg2VQFo1rzs-158">
          <mxGeometry width="50" height="50" relative="1" as="geometry">
            <mxPoint x="202.33" y="750" as="sourcePoint" />
            <mxPoint x="189.99787077576966" y="804.683830281336" as="targetPoint" />
          </mxGeometry>
        </mxCell>
        <mxCell id="3AkXD_OntBg2VQFo1rzs-97" value="ToolID" style="ellipse;whiteSpace=wrap;html=1;align=center;" vertex="1" parent="1">
          <mxGeometry x="190" y="810" width="60" height="20" as="geometry" />
        </mxCell>
        <mxCell id="3AkXD_OntBg2VQFo1rzs-98" value="" style="endArrow=none;html=1;rounded=0;entryX=0.5;entryY=0;entryDx=0;entryDy=0;exitX=0.351;exitY=0.875;exitDx=0;exitDy=0;exitPerimeter=0;" edge="1" parent="1" target="3AkXD_OntBg2VQFo1rzs-97" source="3AkXD_OntBg2VQFo1rzs-158">
          <mxGeometry width="50" height="50" relative="1" as="geometry">
            <mxPoint x="225.0999999999999" y="751.96" as="sourcePoint" />
            <mxPoint x="145" y="820" as="targetPoint" />
          </mxGeometry>
        </mxCell>
        <mxCell id="3AkXD_OntBg2VQFo1rzs-99" value="CheckInID" style="ellipse;whiteSpace=wrap;html=1;align=center;" vertex="1" parent="1">
          <mxGeometry x="260" y="805" width="90" height="30" as="geometry" />
        </mxCell>
        <mxCell id="3AkXD_OntBg2VQFo1rzs-100" value="" style="endArrow=none;html=1;rounded=0;entryX=0.305;entryY=0.075;entryDx=0;entryDy=0;exitX=0.5;exitY=1;exitDx=0;exitDy=0;entryPerimeter=0;" edge="1" parent="1" target="3AkXD_OntBg2VQFo1rzs-99" source="3AkXD_OntBg2VQFo1rzs-158">
          <mxGeometry width="50" height="50" relative="1" as="geometry">
            <mxPoint x="252.0999999999999" y="754.28" as="sourcePoint" />
            <mxPoint x="340" y="830" as="targetPoint" />
          </mxGeometry>
        </mxCell>
        <mxCell id="3AkXD_OntBg2VQFo1rzs-101" style="edgeStyle=orthogonalEdgeStyle;rounded=0;orthogonalLoop=1;jettySize=auto;html=1;exitX=0.5;exitY=1;exitDx=0;exitDy=0;" edge="1" parent="1" source="3AkXD_OntBg2VQFo1rzs-99" target="3AkXD_OntBg2VQFo1rzs-99">
          <mxGeometry relative="1" as="geometry" />
        </mxCell>
        <mxCell id="3AkXD_OntBg2VQFo1rzs-102" style="edgeStyle=orthogonalEdgeStyle;rounded=0;orthogonalLoop=1;jettySize=auto;html=1;exitX=0.5;exitY=1;exitDx=0;exitDy=0;" edge="1" parent="1" source="3AkXD_OntBg2VQFo1rzs-97" target="3AkXD_OntBg2VQFo1rzs-97">
          <mxGeometry relative="1" as="geometry" />
        </mxCell>
        <mxCell id="3AkXD_OntBg2VQFo1rzs-104" value="Name" style="ellipse;whiteSpace=wrap;html=1;align=center;" vertex="1" parent="1">
          <mxGeometry x="935" y="680" width="70" height="20" as="geometry" />
        </mxCell>
        <mxCell id="3AkXD_OntBg2VQFo1rzs-105" value="" style="endArrow=none;html=1;rounded=0;entryX=0;entryY=0.5;entryDx=0;entryDy=0;exitX=1;exitY=0;exitDx=0;exitDy=0;" edge="1" parent="1" target="3AkXD_OntBg2VQFo1rzs-104">
          <mxGeometry width="50" height="50" relative="1" as="geometry">
            <mxPoint x="895" y="710" as="sourcePoint" />
            <mxPoint x="885" y="650" as="targetPoint" />
          </mxGeometry>
        </mxCell>
        <mxCell id="3AkXD_OntBg2VQFo1rzs-106" value="Description" style="ellipse;whiteSpace=wrap;html=1;align=center;" vertex="1" parent="1">
          <mxGeometry x="1050" y="730" width="70" height="30" as="geometry" />
        </mxCell>
        <mxCell id="3AkXD_OntBg2VQFo1rzs-107" value="" style="endArrow=none;html=1;rounded=0;entryX=0;entryY=0.5;entryDx=0;entryDy=0;exitX=1;exitY=0.5;exitDx=0;exitDy=0;" edge="1" parent="1" target="3AkXD_OntBg2VQFo1rzs-106" source="3AkXD_OntBg2VQFo1rzs-7">
          <mxGeometry width="50" height="50" relative="1" as="geometry">
            <mxPoint x="895" y="740" as="sourcePoint" />
            <mxPoint x="1230" y="730" as="targetPoint" />
          </mxGeometry>
        </mxCell>
        <mxCell id="3AkXD_OntBg2VQFo1rzs-108" value="PurchaseDate" style="ellipse;whiteSpace=wrap;html=1;align=center;" vertex="1" parent="1">
          <mxGeometry x="1015" y="690" width="110" height="30" as="geometry" />
        </mxCell>
        <mxCell id="3AkXD_OntBg2VQFo1rzs-109" value="" style="endArrow=none;html=1;rounded=0;entryX=0;entryY=0.5;entryDx=0;entryDy=0;exitX=1;exitY=0.25;exitDx=0;exitDy=0;exitPerimeter=0;" edge="1" parent="1" target="3AkXD_OntBg2VQFo1rzs-108" source="3AkXD_OntBg2VQFo1rzs-7">
          <mxGeometry width="50" height="50" relative="1" as="geometry">
            <mxPoint x="895" y="730" as="sourcePoint" />
            <mxPoint x="1300" y="700" as="targetPoint" />
          </mxGeometry>
        </mxCell>
        <mxCell id="3AkXD_OntBg2VQFo1rzs-110" value="ToolID" style="ellipse;whiteSpace=wrap;html=1;align=center;fontStyle=4;" vertex="1" parent="1">
          <mxGeometry x="935" y="630" width="90" height="30" as="geometry" />
        </mxCell>
        <mxCell id="3AkXD_OntBg2VQFo1rzs-111" value="" style="endArrow=none;html=1;rounded=0;entryX=0;entryY=1;entryDx=0;entryDy=0;exitX=0.75;exitY=0;exitDx=0;exitDy=0;" edge="1" parent="1" target="3AkXD_OntBg2VQFo1rzs-110" source="3AkXD_OntBg2VQFo1rzs-7">
          <mxGeometry width="50" height="50" relative="1" as="geometry">
            <mxPoint x="870" y="710" as="sourcePoint" />
            <mxPoint x="955" y="710" as="targetPoint" />
          </mxGeometry>
        </mxCell>
        <mxCell id="3AkXD_OntBg2VQFo1rzs-112" value="Category" style="ellipse;whiteSpace=wrap;html=1;align=center;" vertex="1" parent="1">
          <mxGeometry x="1080" y="770" width="70" height="20" as="geometry" />
        </mxCell>
        <mxCell id="3AkXD_OntBg2VQFo1rzs-113" value="" style="endArrow=none;html=1;rounded=0;entryX=0;entryY=0.5;entryDx=0;entryDy=0;exitX=1;exitY=1;exitDx=0;exitDy=0;" edge="1" parent="1" target="3AkXD_OntBg2VQFo1rzs-112" source="3AkXD_OntBg2VQFo1rzs-7">
          <mxGeometry width="50" height="50" relative="1" as="geometry">
            <mxPoint x="870" y="750" as="sourcePoint" />
            <mxPoint x="1210" y="770" as="targetPoint" />
          </mxGeometry>
        </mxCell>
        <mxCell id="3AkXD_OntBg2VQFo1rzs-114" value="InvID" style="ellipse;whiteSpace=wrap;html=1;align=center;" vertex="1" parent="1">
          <mxGeometry x="850" y="625" width="70" height="20" as="geometry" />
        </mxCell>
        <mxCell id="3AkXD_OntBg2VQFo1rzs-116" value="" style="endArrow=none;html=1;rounded=0;entryX=0.5;entryY=1;entryDx=0;entryDy=0;exitX=0.75;exitY=0;exitDx=0;exitDy=0;" edge="1" parent="1" target="3AkXD_OntBg2VQFo1rzs-114">
          <mxGeometry width="50" height="50" relative="1" as="geometry">
            <mxPoint x="839" y="710" as="sourcePoint" />
            <mxPoint x="911" y="655" as="targetPoint" />
          </mxGeometry>
        </mxCell>
        <mxCell id="3AkXD_OntBg2VQFo1rzs-117" value="Price" style="ellipse;whiteSpace=wrap;html=1;align=center;" vertex="1" parent="1">
          <mxGeometry x="950" y="800" width="40" height="30" as="geometry" />
        </mxCell>
        <mxCell id="3AkXD_OntBg2VQFo1rzs-118" value="" style="endArrow=none;html=1;rounded=0;entryX=0;entryY=0;entryDx=0;entryDy=0;exitX=0.621;exitY=1.019;exitDx=0;exitDy=0;exitPerimeter=0;" edge="1" parent="1" target="3AkXD_OntBg2VQFo1rzs-117" source="3AkXD_OntBg2VQFo1rzs-7">
          <mxGeometry width="50" height="50" relative="1" as="geometry">
            <mxPoint x="870" y="790" as="sourcePoint" />
            <mxPoint x="1180" y="810" as="targetPoint" />
          </mxGeometry>
        </mxCell>
        <mxCell id="3AkXD_OntBg2VQFo1rzs-119" value="Status&lt;span style=&quot;color: rgba(0, 0, 0, 0); font-family: monospace; font-size: 0px; text-align: start; text-wrap: nowrap;&quot;&gt;%3CmxGraphModel%3E%3Croot%3E%3CmxCell%20id%3D%220%22%2F%3E%3CmxCell%20id%3D%221%22%20parent%3D%220%22%2F%3E%3CmxCell%20id%3D%222%22%20value%3D%22Price%22%20style%3D%22ellipse%3BwhiteSpace%3Dwrap%3Bhtml%3D1%3Balign%3Dcenter%3B%22%20vertex%3D%221%22%20parent%3D%221%22%3E%3CmxGeometry%20x%3D%22740%22%20y%3D%22760%22%20width%3D%2250%22%20height%3D%2230%22%20as%3D%22geometry%22%2F%3E%3C%2FmxCell%3E%3CmxCell%20id%3D%223%22%20value%3D%22%22%20style%3D%22endArrow%3Dnone%3Bhtml%3D1%3Brounded%3D0%3BentryX%3D0%3BentryY%3D0%3BentryDx%3D0%3BentryDy%3D0%3BexitX%3D0.75%3BexitY%3D1%3BexitDx%3D0%3BexitDy%3D0%3B%22%20edge%3D%221%22%20target%3D%222%22%20parent%3D%221%22%3E%3CmxGeometry%20width%3D%2250%22%20height%3D%2250%22%20relative%3D%221%22%20as%3D%22geometry%22%3E%3CmxPoint%20x%3D%22745%22%20y%3D%22730%22%20as%3D%22sourcePoint%22%2F%3E%3CmxPoint%20x%3D%221050%22%20y%3D%22790%22%20as%3D%22targetPoint%22%2F%3E%3C%2FmxGeometry%3E%3C%2FmxCell%3E%3C%2Froot%3E%3C%2FmxGraphModel%3E&lt;/span&gt;" style="ellipse;whiteSpace=wrap;html=1;align=center;" vertex="1" parent="1">
          <mxGeometry x="1090" y="810" width="50" height="30" as="geometry" />
        </mxCell>
        <mxCell id="3AkXD_OntBg2VQFo1rzs-120" value="" style="endArrow=none;html=1;rounded=0;entryX=0;entryY=0;entryDx=0;entryDy=0;exitX=0.892;exitY=1.019;exitDx=0;exitDy=0;exitPerimeter=0;" edge="1" parent="1" target="3AkXD_OntBg2VQFo1rzs-119" source="3AkXD_OntBg2VQFo1rzs-7">
          <mxGeometry width="50" height="50" relative="1" as="geometry">
            <mxPoint x="1010" y="750" as="sourcePoint" />
            <mxPoint x="1315" y="810" as="targetPoint" />
          </mxGeometry>
        </mxCell>
        <mxCell id="3AkXD_OntBg2VQFo1rzs-121" value="Weight&lt;span style=&quot;color: rgba(0, 0, 0, 0); font-family: monospace; font-size: 0px; text-align: start; text-wrap: nowrap;&quot;&gt;%3CmxGraphModel%3E%3Croot%3E%3CmxCell%20id%3D%220%22%2F%3E%3CmxCell%20id%3D%221%22%20parent%3D%220%22%2F%3E%3CmxCell%20id%3D%222%22%20value%3D%22Status%26lt%3Bspan%20style%3D%26quot%3Bcolor%3A%20rgba(0%2C%200%2C%200%2C%200)%3B%20font-family%3A%20monospace%3B%20font-size%3A%200px%3B%20text-align%3A%20start%3B%20text-wrap%3A%20nowrap%3B%26quot%3B%26gt%3B%253CmxGraphModel%253E%253Croot%253E%253CmxCell%2520id%253D%25220%2522%252F%253E%253CmxCell%2520id%253D%25221%2522%2520parent%253D%25220%2522%252F%253E%253CmxCell%2520id%253D%25222%2522%2520value%253D%2522Price%2522%2520style%253D%2522ellipse%253BwhiteSpace%253Dwrap%253Bhtml%253D1%253Balign%253Dcenter%253B%2522%2520vertex%253D%25221%2522%2520parent%253D%25221%2522%253E%253CmxGeometry%2520x%253D%2522740%2522%2520y%253D%2522760%2522%2520width%253D%252250%2522%2520height%253D%252230%2522%2520as%253D%2522geometry%2522%252F%253E%253C%252FmxCell%253E%253CmxCell%2520id%253D%25223%2522%2520value%253D%2522%2522%2520style%253D%2522endArrow%253Dnone%253Bhtml%253D1%253Brounded%253D0%253BentryX%253D0%253BentryY%253D0%253BentryDx%253D0%253BentryDy%253D0%253BexitX%253D0.75%253BexitY%253D1%253BexitDx%253D0%253BexitDy%253D0%253B%2522%2520edge%253D%25221%2522%2520target%253D%25222%2522%2520parent%253D%25221%2522%253E%253CmxGeometry%2520width%253D%252250%2522%2520height%253D%252250%2522%2520relative%253D%25221%2522%2520as%253D%2522geometry%2522%253E%253CmxPoint%2520x%253D%2522745%2522%2520y%253D%2522730%2522%2520as%253D%2522sourcePoint%2522%252F%253E%253CmxPoint%2520x%253D%25221050%2522%2520y%253D%2522790%2522%2520as%253D%2522targetPoint%2522%252F%253E%253C%252FmxGeometry%253E%253C%252FmxCell%253E%253C%252Froot%253E%253C%252FmxGraphModel%253E%26lt%3B%2Fspan%26gt%3B%22%20style%3D%22ellipse%3BwhiteSpace%3Dwrap%3Bhtml%3D1%3Balign%3Dcenter%3B%22%20vertex%3D%221%22%20parent%3D%221%22%3E%3CmxGeometry%20x%3D%22875%22%20y%3D%22760%22%20width%3D%2250%22%20height%3D%2230%22%20as%3D%22geometry%22%2F%3E%3C%2FmxCell%3E%3C%2Froot%3E%3C%2FmxGraphModel%3E&lt;/span&gt;" style="ellipse;whiteSpace=wrap;html=1;align=center;" vertex="1" parent="1">
          <mxGeometry x="1015" y="810" width="50" height="30" as="geometry" />
        </mxCell>
        <mxCell id="3AkXD_OntBg2VQFo1rzs-125" value="Model" style="ellipse;whiteSpace=wrap;html=1;align=center;" vertex="1" parent="1">
          <mxGeometry x="950" y="850" width="50" height="30" as="geometry" />
        </mxCell>
        <mxCell id="3AkXD_OntBg2VQFo1rzs-126" value="Manufacturer" style="ellipse;whiteSpace=wrap;html=1;align=center;" vertex="1" parent="1">
          <mxGeometry x="860" y="835" width="90" height="30" as="geometry" />
        </mxCell>
        <mxCell id="3AkXD_OntBg2VQFo1rzs-127" value="EquipmentID&lt;span style=&quot;color: rgba(0, 0, 0, 0); font-family: monospace; font-size: 0px; text-align: start; text-wrap: nowrap;&quot;&gt;%3CmxGraphModel%3E%3Croot%3E%3CmxCell%20id%3D%220%22%2F%3E%3CmxCell%20id%3D%221%22%20parent%3D%220%22%2F%3E%3CmxCell%20id%3D%222%22%20value%3D%22Model%22%20style%3D%22ellipse%3BwhiteSpace%3Dwrap%3Bhtml%3D1%3Balign%3Dcenter%3B%22%20vertex%3D%221%22%20parent%3D%221%22%3E%3CmxGeometry%20x%3D%22710%22%20y%3D%22805%22%20width%3D%2250%22%20height%3D%2230%22%20as%3D%22geometry%22%2F%3E%3C%2FmxCell%3E%3C%2Froot%3E%3C%2FmxGraphModel%3E&lt;/span&gt;" style="ellipse;whiteSpace=wrap;html=1;align=center;" vertex="1" parent="1">
          <mxGeometry x="820" y="880" width="95" height="30" as="geometry" />
        </mxCell>
        <mxCell id="3AkXD_OntBg2VQFo1rzs-128" value="" style="endArrow=none;html=1;rounded=0;entryX=0.5;entryY=0;entryDx=0;entryDy=0;exitX=0.75;exitY=1;exitDx=0;exitDy=0;" edge="1" parent="1" source="3AkXD_OntBg2VQFo1rzs-7" target="3AkXD_OntBg2VQFo1rzs-121">
          <mxGeometry width="50" height="50" relative="1" as="geometry">
            <mxPoint x="899" y="761" as="sourcePoint" />
            <mxPoint x="1022" y="795" as="targetPoint" />
          </mxGeometry>
        </mxCell>
        <mxCell id="3AkXD_OntBg2VQFo1rzs-129" value="" style="endArrow=none;html=1;rounded=0;entryX=0.5;entryY=0;entryDx=0;entryDy=0;exitX=0.5;exitY=1;exitDx=0;exitDy=0;" edge="1" parent="1" source="3AkXD_OntBg2VQFo1rzs-7" target="3AkXD_OntBg2VQFo1rzs-125">
          <mxGeometry width="50" height="50" relative="1" as="geometry">
            <mxPoint x="872" y="761" as="sourcePoint" />
            <mxPoint x="887" y="795" as="targetPoint" />
          </mxGeometry>
        </mxCell>
        <mxCell id="3AkXD_OntBg2VQFo1rzs-130" value="" style="endArrow=none;html=1;rounded=0;entryX=0.5;entryY=0;entryDx=0;entryDy=0;exitX=0.175;exitY=1.009;exitDx=0;exitDy=0;exitPerimeter=0;" edge="1" parent="1" source="3AkXD_OntBg2VQFo1rzs-7" target="3AkXD_OntBg2VQFo1rzs-127">
          <mxGeometry width="50" height="50" relative="1" as="geometry">
            <mxPoint x="860" y="760" as="sourcePoint" />
            <mxPoint x="885" y="840" as="targetPoint" />
          </mxGeometry>
        </mxCell>
        <mxCell id="3AkXD_OntBg2VQFo1rzs-131" value="" style="endArrow=none;html=1;rounded=0;exitX=0.25;exitY=1;exitDx=0;exitDy=0;" edge="1" parent="1" source="3AkXD_OntBg2VQFo1rzs-7" target="3AkXD_OntBg2VQFo1rzs-126">
          <mxGeometry width="50" height="50" relative="1" as="geometry">
            <mxPoint x="870" y="770" as="sourcePoint" />
            <mxPoint x="895" y="850" as="targetPoint" />
          </mxGeometry>
        </mxCell>
        <mxCell id="3AkXD_OntBg2VQFo1rzs-133" value="CheckInID" style="ellipse;whiteSpace=wrap;html=1;align=center;fontStyle=4;" vertex="1" parent="1">
          <mxGeometry x="305" y="900" width="90" height="30" as="geometry" />
        </mxCell>
        <mxCell id="3AkXD_OntBg2VQFo1rzs-134" value="" style="endArrow=none;html=1;rounded=0;entryX=0;entryY=0;entryDx=0;entryDy=0;exitX=1;exitY=1;exitDx=0;exitDy=0;" edge="1" parent="1" source="3AkXD_OntBg2VQFo1rzs-133">
          <mxGeometry width="50" height="50" relative="1" as="geometry">
            <mxPoint x="410" y="740" as="sourcePoint" />
            <mxPoint x="410" y="950" as="targetPoint" />
          </mxGeometry>
        </mxCell>
        <mxCell id="3AkXD_OntBg2VQFo1rzs-135" value="EmpID" style="ellipse;whiteSpace=wrap;html=1;align=center;" vertex="1" parent="1">
          <mxGeometry x="250" y="930" width="70" height="20" as="geometry" />
        </mxCell>
        <mxCell id="3AkXD_OntBg2VQFo1rzs-136" value="" style="endArrow=none;html=1;rounded=0;entryX=1;entryY=0.5;entryDx=0;entryDy=0;exitX=0;exitY=0.25;exitDx=0;exitDy=0;" edge="1" parent="1" target="3AkXD_OntBg2VQFo1rzs-135">
          <mxGeometry width="50" height="50" relative="1" as="geometry">
            <mxPoint x="410" y="960" as="sourcePoint" />
            <mxPoint x="320" y="915" as="targetPoint" />
          </mxGeometry>
        </mxCell>
        <mxCell id="3AkXD_OntBg2VQFo1rzs-137" value="" style="endArrow=none;html=1;rounded=0;entryX=1;entryY=0.5;entryDx=0;entryDy=0;exitX=0;exitY=0.5;exitDx=0;exitDy=0;" edge="1" parent="1">
          <mxGeometry width="50" height="50" relative="1" as="geometry">
            <mxPoint x="410" y="970" as="sourcePoint" />
            <mxPoint x="305" y="970" as="targetPoint" />
          </mxGeometry>
        </mxCell>
        <mxCell id="3AkXD_OntBg2VQFo1rzs-138" value="QuantityCheckIn" style="ellipse;whiteSpace=wrap;html=1;align=center;" vertex="1" parent="1">
          <mxGeometry x="190" y="960" width="120" height="30" as="geometry" />
        </mxCell>
        <mxCell id="3AkXD_OntBg2VQFo1rzs-140" value="CheckInDateTime" style="ellipse;whiteSpace=wrap;html=1;align=center;" vertex="1" parent="1">
          <mxGeometry x="220" y="1030" width="110" height="30" as="geometry" />
        </mxCell>
        <mxCell id="3AkXD_OntBg2VQFo1rzs-141" value="" style="endArrow=none;html=1;rounded=0;entryX=1;entryY=0;entryDx=0;entryDy=0;exitX=0;exitY=1;exitDx=0;exitDy=0;" edge="1" parent="1" target="3AkXD_OntBg2VQFo1rzs-140">
          <mxGeometry width="50" height="50" relative="1" as="geometry">
            <mxPoint x="410" y="990" as="sourcePoint" />
            <mxPoint x="345" y="1040" as="targetPoint" />
          </mxGeometry>
        </mxCell>
        <mxCell id="3AkXD_OntBg2VQFo1rzs-142" value="CheckOutExpectedDate" style="ellipse;whiteSpace=wrap;html=1;align=center;" vertex="1" parent="1">
          <mxGeometry x="264" y="1070" width="150" height="50" as="geometry" />
        </mxCell>
        <mxCell id="3AkXD_OntBg2VQFo1rzs-143" value="" style="endArrow=none;html=1;rounded=0;entryX=0.572;entryY=-0.008;entryDx=0;entryDy=0;exitX=0;exitY=1;exitDx=0;exitDy=0;entryPerimeter=0;" edge="1" parent="1" target="3AkXD_OntBg2VQFo1rzs-142">
          <mxGeometry width="50" height="50" relative="1" as="geometry">
            <mxPoint x="422.33000000000004" y="990" as="sourcePoint" />
            <mxPoint x="409.9978707757697" y="1044.683830281336" as="targetPoint" />
          </mxGeometry>
        </mxCell>
        <mxCell id="3AkXD_OntBg2VQFo1rzs-144" value="CheckOutDateTime" style="ellipse;whiteSpace=wrap;html=1;align=center;" vertex="1" parent="1">
          <mxGeometry x="410" y="1050" width="120" height="50" as="geometry" />
        </mxCell>
        <mxCell id="3AkXD_OntBg2VQFo1rzs-145" value="" style="endArrow=none;html=1;rounded=0;entryX=0.5;entryY=0;entryDx=0;entryDy=0;exitX=0.351;exitY=1.049;exitDx=0;exitDy=0;exitPerimeter=0;" edge="1" parent="1" target="3AkXD_OntBg2VQFo1rzs-144">
          <mxGeometry width="50" height="50" relative="1" as="geometry">
            <mxPoint x="445.10000000000036" y="991.9599999999998" as="sourcePoint" />
            <mxPoint x="365" y="1060" as="targetPoint" />
          </mxGeometry>
        </mxCell>
        <mxCell id="3AkXD_OntBg2VQFo1rzs-146" value="" style="endArrow=none;html=1;rounded=0;exitX=0.75;exitY=1;exitDx=0;exitDy=0;entryX=0;entryY=0;entryDx=0;entryDy=0;" edge="1" parent="1" source="3AkXD_OntBg2VQFo1rzs-8" target="3AkXD_OntBg2VQFo1rzs-150">
          <mxGeometry width="50" height="50" relative="1" as="geometry">
            <mxPoint x="472.10000000000036" y="994.2799999999997" as="sourcePoint" />
            <mxPoint x="570" y="1040" as="targetPoint" />
          </mxGeometry>
        </mxCell>
        <mxCell id="3AkXD_OntBg2VQFo1rzs-147" style="edgeStyle=orthogonalEdgeStyle;rounded=0;orthogonalLoop=1;jettySize=auto;html=1;exitX=0.5;exitY=1;exitDx=0;exitDy=0;" edge="1" parent="1" source="3AkXD_OntBg2VQFo1rzs-144" target="3AkXD_OntBg2VQFo1rzs-144">
          <mxGeometry relative="1" as="geometry" />
        </mxCell>
        <mxCell id="3AkXD_OntBg2VQFo1rzs-148" value="ToolIDs" style="ellipse;shape=doubleEllipse;margin=3;whiteSpace=wrap;html=1;align=center;" vertex="1" parent="1">
          <mxGeometry x="120" y="990" width="100" height="40" as="geometry" />
        </mxCell>
        <mxCell id="3AkXD_OntBg2VQFo1rzs-149" value="" style="endArrow=none;html=1;rounded=0;entryX=1;entryY=0.5;entryDx=0;entryDy=0;exitX=0;exitY=0.75;exitDx=0;exitDy=0;" edge="1" parent="1" source="3AkXD_OntBg2VQFo1rzs-8" target="3AkXD_OntBg2VQFo1rzs-148">
          <mxGeometry width="50" height="50" relative="1" as="geometry">
            <mxPoint x="400" y="970" as="sourcePoint" />
            <mxPoint x="315" y="980" as="targetPoint" />
          </mxGeometry>
        </mxCell>
        <mxCell id="3AkXD_OntBg2VQFo1rzs-150" value="EquipmentID" style="ellipse;whiteSpace=wrap;html=1;align=center;" vertex="1" parent="1">
          <mxGeometry x="555" y="1030" width="120" height="50" as="geometry" />
        </mxCell>
        <mxCell id="3AkXD_OntBg2VQFo1rzs-151" value="" style="endArrow=none;html=1;rounded=0;exitX=1;exitY=0.5;exitDx=0;exitDy=0;entryX=0;entryY=0.5;entryDx=0;entryDy=0;" edge="1" parent="1" target="3AkXD_OntBg2VQFo1rzs-152" source="3AkXD_OntBg2VQFo1rzs-8">
          <mxGeometry width="50" height="50" relative="1" as="geometry">
            <mxPoint x="510" y="925" as="sourcePoint" />
            <mxPoint x="595" y="975" as="targetPoint" />
          </mxGeometry>
        </mxCell>
        <mxCell id="3AkXD_OntBg2VQFo1rzs-152" value="QuantityCheckOut" style="ellipse;whiteSpace=wrap;html=1;align=center;" vertex="1" parent="1">
          <mxGeometry x="580" y="965" width="120" height="50" as="geometry" />
        </mxCell>
        <mxCell id="3AkXD_OntBg2VQFo1rzs-153" value="CheckIn/CheckOut" style="shape=rhombus;perimeter=rhombusPerimeter;whiteSpace=wrap;html=1;align=center;" vertex="1" parent="1">
          <mxGeometry x="492.5" y="765" width="175" height="70" as="geometry" />
        </mxCell>
        <mxCell id="3AkXD_OntBg2VQFo1rzs-155" value="" style="endArrow=none;html=1;rounded=0;entryX=0.081;entryY=1.036;entryDx=0;entryDy=0;exitX=1;exitY=0.5;exitDx=0;exitDy=0;edgeStyle=orthogonalEdgeStyle;entryPerimeter=0;" edge="1" parent="1" source="3AkXD_OntBg2VQFo1rzs-153" target="3AkXD_OntBg2VQFo1rzs-7">
          <mxGeometry relative="1" as="geometry">
            <mxPoint x="630" y="730" as="sourcePoint" />
            <mxPoint x="790" y="730" as="targetPoint" />
            <Array as="points">
              <mxPoint x="807" y="800" />
              <mxPoint x="807" y="751" />
            </Array>
          </mxGeometry>
        </mxCell>
        <mxCell id="3AkXD_OntBg2VQFo1rzs-157" value="" style="endArrow=none;html=1;rounded=0;exitX=0.359;exitY=0.009;exitDx=0;exitDy=0;exitPerimeter=0;entryX=0;entryY=0.5;entryDx=0;entryDy=0;edgeStyle=orthogonalEdgeStyle;" edge="1" parent="1" source="3AkXD_OntBg2VQFo1rzs-8" target="3AkXD_OntBg2VQFo1rzs-153">
          <mxGeometry relative="1" as="geometry">
            <mxPoint x="410" y="680" as="sourcePoint" />
            <mxPoint x="570" y="680" as="targetPoint" />
          </mxGeometry>
        </mxCell>
        <mxCell id="3AkXD_OntBg2VQFo1rzs-158" value="DamageLost" style="shape=ext;margin=3;double=1;whiteSpace=wrap;html=1;align=center;" vertex="1" parent="1">
          <mxGeometry x="190" y="705" width="100" height="40" as="geometry" />
        </mxCell>
        <mxCell id="3AkXD_OntBg2VQFo1rzs-159" value="Pron to Damage/Lost" style="shape=rhombus;double=1;perimeter=rhombusPerimeter;whiteSpace=wrap;html=1;align=center;" vertex="1" parent="1">
          <mxGeometry x="395" y="670" width="165" height="90" as="geometry" />
        </mxCell>
        <mxCell id="3AkXD_OntBg2VQFo1rzs-161" value="" style="endArrow=none;html=1;rounded=0;exitX=1;exitY=0.5;exitDx=0;exitDy=0;entryX=0;entryY=0.75;entryDx=0;entryDy=0;edgeStyle=orthogonalEdgeStyle;" edge="1" parent="1" source="3AkXD_OntBg2VQFo1rzs-159" target="3AkXD_OntBg2VQFo1rzs-7">
          <mxGeometry relative="1" as="geometry">
            <mxPoint x="410" y="680" as="sourcePoint" />
            <mxPoint x="800" y="730" as="targetPoint" />
            <Array as="points">
              <mxPoint x="590" y="715" />
              <mxPoint x="590" y="740" />
            </Array>
          </mxGeometry>
        </mxCell>
        <mxCell id="3AkXD_OntBg2VQFo1rzs-163" value="" style="endArrow=none;html=1;rounded=0;exitX=1;exitY=0.25;exitDx=0;exitDy=0;entryX=0;entryY=0.5;entryDx=0;entryDy=0;" edge="1" parent="1" source="3AkXD_OntBg2VQFo1rzs-158" target="3AkXD_OntBg2VQFo1rzs-159">
          <mxGeometry relative="1" as="geometry">
            <mxPoint x="410" y="680" as="sourcePoint" />
            <mxPoint x="570" y="680" as="targetPoint" />
          </mxGeometry>
        </mxCell>
        <mxCell id="3AkXD_OntBg2VQFo1rzs-164" value="Contains" style="shape=rhombus;perimeter=rhombusPerimeter;whiteSpace=wrap;html=1;align=center;" vertex="1" parent="1">
          <mxGeometry x="372.5" y="585" width="120" height="60" as="geometry" />
        </mxCell>
        <mxCell id="3AkXD_OntBg2VQFo1rzs-165" value="" style="endArrow=none;html=1;rounded=0;exitX=1;exitY=0.5;exitDx=0;exitDy=0;edgeStyle=orthogonalEdgeStyle;" edge="1" parent="1" source="3AkXD_OntBg2VQFo1rzs-164">
          <mxGeometry relative="1" as="geometry">
            <mxPoint x="410" y="680" as="sourcePoint" />
            <mxPoint x="800" y="720" as="targetPoint" />
            <Array as="points">
              <mxPoint x="492" y="660" />
              <mxPoint x="700" y="660" />
              <mxPoint x="700" y="720" />
            </Array>
          </mxGeometry>
        </mxCell>
        <mxCell id="3AkXD_OntBg2VQFo1rzs-166" value="" style="endArrow=none;html=1;rounded=0;entryX=0.75;entryY=1;entryDx=0;entryDy=0;exitX=0;exitY=0.5;exitDx=0;exitDy=0;edgeStyle=orthogonalEdgeStyle;" edge="1" parent="1" source="3AkXD_OntBg2VQFo1rzs-164" target="3AkXD_OntBg2VQFo1rzs-5">
          <mxGeometry relative="1" as="geometry">
            <mxPoint x="503" y="625" as="sourcePoint" />
            <mxPoint x="810" y="730" as="targetPoint" />
          </mxGeometry>
        </mxCell>
        <mxCell id="3AkXD_OntBg2VQFo1rzs-167" value="" style="endArrow=none;html=1;rounded=0;exitX=0.5;exitY=1;exitDx=0;exitDy=0;edgeStyle=orthogonalEdgeStyle;" edge="1" parent="1" source="3AkXD_OntBg2VQFo1rzs-168" target="3AkXD_OntBg2VQFo1rzs-7">
          <mxGeometry relative="1" as="geometry">
            <mxPoint x="513" y="635" as="sourcePoint" />
            <mxPoint x="820" y="740" as="targetPoint" />
            <Array as="points">
              <mxPoint x="680" y="640" />
              <mxPoint x="810" y="640" />
            </Array>
          </mxGeometry>
        </mxCell>
        <mxCell id="3AkXD_OntBg2VQFo1rzs-168" value="Has" style="shape=rhombus;perimeter=rhombusPerimeter;whiteSpace=wrap;html=1;align=center;" vertex="1" parent="1">
          <mxGeometry x="630" y="550" width="100" height="50" as="geometry" />
        </mxCell>
        <mxCell id="3AkXD_OntBg2VQFo1rzs-169" value="" style="endArrow=none;html=1;rounded=0;exitX=0.5;exitY=1;exitDx=0;exitDy=0;entryX=0.5;entryY=0;entryDx=0;entryDy=0;" edge="1" parent="1" source="3AkXD_OntBg2VQFo1rzs-4" target="3AkXD_OntBg2VQFo1rzs-168">
          <mxGeometry relative="1" as="geometry">
            <mxPoint x="410" y="680" as="sourcePoint" />
            <mxPoint x="570" y="680" as="targetPoint" />
          </mxGeometry>
        </mxCell>
        <mxCell id="3AkXD_OntBg2VQFo1rzs-170" value="Store" style="shape=rhombus;perimeter=rhombusPerimeter;whiteSpace=wrap;html=1;align=center;" vertex="1" parent="1">
          <mxGeometry x="380" y="440" width="120" height="60" as="geometry" />
        </mxCell>
        <mxCell id="3AkXD_OntBg2VQFo1rzs-171" value="" style="endArrow=none;html=1;rounded=0;exitX=1;exitY=0.5;exitDx=0;exitDy=0;" edge="1" parent="1" source="3AkXD_OntBg2VQFo1rzs-170">
          <mxGeometry relative="1" as="geometry">
            <mxPoint x="470" y="470" as="sourcePoint" />
            <mxPoint x="630" y="470" as="targetPoint" />
          </mxGeometry>
        </mxCell>
        <mxCell id="3AkXD_OntBg2VQFo1rzs-172" value="" style="endArrow=none;html=1;rounded=0;entryX=0;entryY=0.5;entryDx=0;entryDy=0;" edge="1" parent="1" target="3AkXD_OntBg2VQFo1rzs-170">
          <mxGeometry relative="1" as="geometry">
            <mxPoint x="220" y="468.57" as="sourcePoint" />
            <mxPoint x="380" y="468.57" as="targetPoint" />
          </mxGeometry>
        </mxCell>
        <mxCell id="3AkXD_OntBg2VQFo1rzs-173" value="Has" style="shape=rhombus;perimeter=rhombusPerimeter;whiteSpace=wrap;html=1;align=center;" vertex="1" parent="1">
          <mxGeometry x="-220" y="615" width="120" height="60" as="geometry" />
        </mxCell>
        <mxCell id="3AkXD_OntBg2VQFo1rzs-174" value="" style="endArrow=none;html=1;rounded=0;entryX=0.934;entryY=0.012;entryDx=0;entryDy=0;exitX=0.5;exitY=0;exitDx=0;exitDy=0;edgeStyle=orthogonalEdgeStyle;entryPerimeter=0;" edge="1" parent="1" source="3AkXD_OntBg2VQFo1rzs-173" target="3AkXD_OntBg2VQFo1rzs-202">
          <mxGeometry relative="1" as="geometry">
            <mxPoint x="100" y="460" as="sourcePoint" />
            <mxPoint x="260" y="460" as="targetPoint" />
            <Array as="points">
              <mxPoint x="-160" y="360" />
              <mxPoint x="361" y="360" />
            </Array>
          </mxGeometry>
        </mxCell>
        <mxCell id="3AkXD_OntBg2VQFo1rzs-175" value="" style="endArrow=none;html=1;rounded=0;exitX=0.5;exitY=1;exitDx=0;exitDy=0;entryX=0.25;entryY=0;entryDx=0;entryDy=0;edgeStyle=orthogonalEdgeStyle;" edge="1" parent="1" source="3AkXD_OntBg2VQFo1rzs-173" target="3AkXD_OntBg2VQFo1rzs-8">
          <mxGeometry relative="1" as="geometry">
            <mxPoint x="150" y="650" as="sourcePoint" />
            <mxPoint x="310" y="650" as="targetPoint" />
            <Array as="points">
              <mxPoint x="-160" y="870" />
              <mxPoint x="435" y="870" />
            </Array>
          </mxGeometry>
        </mxCell>
        <mxCell id="3AkXD_OntBg2VQFo1rzs-177" value="Manage" style="shape=rhombus;perimeter=rhombusPerimeter;whiteSpace=wrap;html=1;align=center;" vertex="1" parent="1">
          <mxGeometry x="260" y="380" width="100" height="50" as="geometry" />
        </mxCell>
        <mxCell id="3AkXD_OntBg2VQFo1rzs-178" value="" style="endArrow=none;html=1;rounded=0;entryX=0.621;entryY=1.014;entryDx=0;entryDy=0;entryPerimeter=0;exitX=1;exitY=0.5;exitDx=0;exitDy=0;edgeStyle=orthogonalEdgeStyle;" edge="1" parent="1" source="3AkXD_OntBg2VQFo1rzs-177" target="3AkXD_OntBg2VQFo1rzs-3">
          <mxGeometry relative="1" as="geometry">
            <mxPoint x="210" y="370" as="sourcePoint" />
            <mxPoint x="370" y="370" as="targetPoint" />
          </mxGeometry>
        </mxCell>
        <mxCell id="3AkXD_OntBg2VQFo1rzs-179" value="" style="endArrow=none;html=1;rounded=0;exitX=0.75;exitY=0;exitDx=0;exitDy=0;entryX=0;entryY=0.5;entryDx=0;entryDy=0;edgeStyle=orthogonalEdgeStyle;" edge="1" parent="1" source="3AkXD_OntBg2VQFo1rzs-5" target="3AkXD_OntBg2VQFo1rzs-177">
          <mxGeometry relative="1" as="geometry">
            <mxPoint x="210" y="370" as="sourcePoint" />
            <mxPoint x="370" y="370" as="targetPoint" />
          </mxGeometry>
        </mxCell>
        <mxCell id="3AkXD_OntBg2VQFo1rzs-180" value="" style="endArrow=none;html=1;rounded=0;entryX=0.5;entryY=0;entryDx=0;entryDy=0;exitX=0.5;exitY=1;exitDx=0;exitDy=0;" edge="1" parent="1" source="3AkXD_OntBg2VQFo1rzs-2" target="3AkXD_OntBg2VQFo1rzs-3">
          <mxGeometry relative="1" as="geometry">
            <mxPoint x="210" y="90" as="sourcePoint" />
            <mxPoint x="370" y="90" as="targetPoint" />
          </mxGeometry>
        </mxCell>
        <mxCell id="3AkXD_OntBg2VQFo1rzs-186" value="" style="endArrow=none;html=1;rounded=0;exitX=1;exitY=0.5;exitDx=0;exitDy=0;entryX=0;entryY=0.5;entryDx=0;entryDy=0;" edge="1" parent="1" source="3AkXD_OntBg2VQFo1rzs-187" target="3AkXD_OntBg2VQFo1rzs-2">
          <mxGeometry relative="1" as="geometry">
            <mxPoint x="85" y="-10" as="sourcePoint" />
            <mxPoint x="245" y="30" as="targetPoint" />
          </mxGeometry>
        </mxCell>
        <mxCell id="3AkXD_OntBg2VQFo1rzs-187" value="Address" style="ellipse;shape=doubleEllipse;margin=3;whiteSpace=wrap;html=1;align=center;" vertex="1" parent="1">
          <mxGeometry x="200" y="50" width="90" height="40" as="geometry" />
        </mxCell>
        <mxCell id="3AkXD_OntBg2VQFo1rzs-192" value="&lt;font style=&quot;font-size: 10px;&quot;&gt;(1, M)&lt;/font&gt;" style="text;html=1;align=center;verticalAlign=middle;resizable=0;points=[];autosize=1;strokeColor=none;fillColor=none;" vertex="1" parent="1">
          <mxGeometry x="415" y="310" width="50" height="30" as="geometry" />
        </mxCell>
        <mxCell id="3AkXD_OntBg2VQFo1rzs-195" value="&lt;font style=&quot;font-size: 10px;&quot;&gt;(1, M)&lt;/font&gt;" style="text;html=1;align=center;verticalAlign=middle;resizable=0;points=[];autosize=1;strokeColor=none;fillColor=none;" vertex="1" parent="1">
          <mxGeometry x="630" y="490" width="50" height="30" as="geometry" />
        </mxCell>
        <mxCell id="3AkXD_OntBg2VQFo1rzs-200" value="(1, N)" style="text;html=1;align=center;verticalAlign=middle;resizable=0;points=[];autosize=1;strokeColor=none;fillColor=none;" vertex="1" parent="1">
          <mxGeometry x="442.5" y="920" width="50" height="30" as="geometry" />
        </mxCell>
        <mxCell id="3AkXD_OntBg2VQFo1rzs-201" value="(0, N)" style="text;html=1;align=center;verticalAlign=middle;resizable=0;points=[];autosize=1;strokeColor=none;fillColor=none;" vertex="1" parent="1">
          <mxGeometry x="389" y="920" width="50" height="30" as="geometry" />
        </mxCell>
        <mxCell id="3AkXD_OntBg2VQFo1rzs-202" value="&lt;font style=&quot;font-size: 10px;&quot;&gt;(1, M)&lt;/font&gt;" style="text;html=1;align=center;verticalAlign=middle;resizable=0;points=[];autosize=1;strokeColor=none;fillColor=none;" vertex="1" parent="1">
          <mxGeometry x="314" y="310" width="50" height="30" as="geometry" />
        </mxCell>
        <mxCell id="3AkXD_OntBg2VQFo1rzs-203" value="&lt;font style=&quot;font-size: 10px;&quot;&gt;(1, M)&lt;/font&gt;" style="text;html=1;align=center;verticalAlign=middle;resizable=0;points=[];autosize=1;strokeColor=none;fillColor=none;" vertex="1" parent="1">
          <mxGeometry x="349" y="105" width="50" height="30" as="geometry" />
        </mxCell>
        <mxCell id="3AkXD_OntBg2VQFo1rzs-205" value="&lt;font style=&quot;font-size: 10px;&quot;&gt;(1, N)&lt;/font&gt;" style="text;html=1;align=center;verticalAlign=middle;resizable=0;points=[];autosize=1;strokeColor=none;fillColor=none;" vertex="1" parent="1">
          <mxGeometry x="190" y="415" width="50" height="30" as="geometry" />
        </mxCell>
        <mxCell id="3AkXD_OntBg2VQFo1rzs-207" value="&lt;font style=&quot;font-size: 10px;&quot;&gt;(1, N)&lt;/font&gt;" style="text;html=1;align=center;verticalAlign=middle;resizable=0;points=[];autosize=1;strokeColor=none;fillColor=none;" vertex="1" parent="1">
          <mxGeometry x="214" y="470" width="50" height="30" as="geometry" />
        </mxCell>
        <mxCell id="3AkXD_OntBg2VQFo1rzs-208" value="&lt;font style=&quot;font-size: 10px;&quot;&gt;(1, M)&lt;/font&gt;" style="text;html=1;align=center;verticalAlign=middle;resizable=0;points=[];autosize=1;strokeColor=none;fillColor=none;" vertex="1" parent="1">
          <mxGeometry x="580" y="440" width="50" height="30" as="geometry" />
        </mxCell>
        <mxCell id="3AkXD_OntBg2VQFo1rzs-210" value="&lt;font style=&quot;font-size: 10px;&quot;&gt;(1, N)&lt;/font&gt;" style="text;html=1;align=center;verticalAlign=middle;resizable=0;points=[];autosize=1;strokeColor=none;fillColor=none;" vertex="1" parent="1">
          <mxGeometry x="800" y="670" width="50" height="30" as="geometry" />
        </mxCell>
        <mxCell id="3AkXD_OntBg2VQFo1rzs-214" value="(0, M)" style="text;html=1;align=center;verticalAlign=middle;resizable=0;points=[];autosize=1;strokeColor=none;fillColor=none;" vertex="1" parent="1">
          <mxGeometry x="285" y="715" width="50" height="30" as="geometry" />
        </mxCell>
        <mxCell id="3AkXD_OntBg2VQFo1rzs-215" value="(0, N)" style="text;html=1;align=center;verticalAlign=middle;resizable=0;points=[];autosize=1;strokeColor=none;fillColor=none;" vertex="1" parent="1">
          <mxGeometry x="720" y="735" width="50" height="30" as="geometry" />
        </mxCell>
        <mxCell id="3AkXD_OntBg2VQFo1rzs-216" value="(0, M)" style="text;html=1;align=center;verticalAlign=middle;resizable=0;points=[];autosize=1;strokeColor=none;fillColor=none;" vertex="1" parent="1">
          <mxGeometry x="150" y="490" width="50" height="30" as="geometry" />
        </mxCell>
        <mxCell id="3AkXD_OntBg2VQFo1rzs-217" value="(1, N)" style="text;html=1;align=center;verticalAlign=middle;resizable=0;points=[];autosize=1;strokeColor=none;fillColor=none;" vertex="1" parent="1">
          <mxGeometry x="740" y="690" width="50" height="30" as="geometry" />
        </mxCell>
        <mxCell id="3AkXD_OntBg2VQFo1rzs-218" value="(0, N)" style="text;html=1;align=center;verticalAlign=middle;resizable=0;points=[];autosize=1;strokeColor=none;fillColor=none;" vertex="1" parent="1">
          <mxGeometry x="760" y="765" width="50" height="30" as="geometry" />
        </mxCell>
      </root>
    </mxGraphModel>
  </diagram>
</mxfile>
